<svg id="icon-rx" xmlns="http://www.w3.org/2000/svg" width="61" height="60" viewBox="0 0 61 60">
  <g id="Rectangle" fill="none" stroke="#fff" stroke-miterlimit="10" stroke-width="0.5">
    <rect width="61" height="60" rx="8" stroke="none"/>
    <rect x="0.25" y="0.25" width="60.5" height="59.5" rx="7.75" fill="none"/>
  </g>
  <g id="eye" transform="translate(15.25 20)">
    <path id="Shape" d="M15.044,20c-5.221,0-10.2-3.107-14.8-9.236A1.306,1.306,0,0,1,.216,9.283,26.006,26.006,0,0,1,4.442,4.658,21.565,21.565,0,0,1,9.23,1.474,14.532,14.532,0,0,1,15.456,0c5.21,0,10.188,3.107,14.8,9.236a1.307,1.307,0,0,1,.031,1.481,26.369,26.369,0,0,1-4.227,4.624,21.538,21.538,0,0,1-4.787,3.184A14.532,14.532,0,0,1,15.044,20Zm.4-17.57c-3.98,0-7.4,2.222-9.562,4.086A25.642,25.642,0,0,0,2.563,9.99c3.982,5.034,8.181,7.587,12.481,7.587,3.98,0,7.4-2.222,9.562-4.087a25.339,25.339,0,0,0,3.324-3.473C23.948,4.983,19.749,2.43,15.449,2.43Z" fill="#fff"/>
    <ellipse id="Oval" cx="4.067" cy="4" rx="4.067" ry="4" transform="translate(11.183 6)" fill="#fff"/>
  </g>
</svg>
