<svg xmlns="http://www.w3.org/2000/svg" width="27.948" height="27.989" viewBox="0 0 27.948 27.989">
  <g id="p-call" transform="translate(-0.02)">
    <path id="Shape" d="M20.127,26.37c-.115,0-.237-.006-.373-.013a14.5,14.5,0,0,1-5.2-1.535A27.8,27.8,0,0,1,5.3,17.573,25.441,25.441,0,0,1,.78,10.036,10.358,10.358,0,0,1,.024,5.653,4.326,4.326,0,0,1,1.306,2.906L3.315.88,3.326.869A2.888,2.888,0,0,1,5.335,0,2.792,2.792,0,0,1,7.313.869c.4.369.786.763,1.111,1.1.176.187.36.372.55.561l1.613,1.613a2.892,2.892,0,0,1,.93,2.044,2.892,2.892,0,0,1-.93,2.044l-.247.249-.25.253-.116.118c-.4.406-.812.825-1.254,1.229a11.871,11.871,0,0,0,1.595,2.516,20.3,20.3,0,0,0,4.861,4.431c.176.109.384.213.585.313l.151.078c.1.053.2.1.3.158l1.867-1.86a2.85,2.85,0,0,1,2.02-.91,2.752,2.752,0,0,1,2,.916l3.243,3.254A2.834,2.834,0,0,1,26.252,21a2.943,2.943,0,0,1-.892,2.044c-.278.291-.556.56-.768.762l-.067.065a12.41,12.41,0,0,0-.967,1,.053.053,0,0,1-.012.015.054.054,0,0,0-.012.015A4.455,4.455,0,0,1,20.127,26.37ZM5.347,1.595a1.35,1.35,0,0,0-.9.419L2.434,4.028a2.717,2.717,0,0,0-.815,1.755,8.421,8.421,0,0,0,.661,3.7,24,24,0,0,0,4.253,7.083,26.243,26.243,0,0,0,8.719,6.829,12.8,12.8,0,0,0,4.607,1.381c.089.006.182.006.272.006a2.85,2.85,0,0,0,2.221-.94,15.586,15.586,0,0,1,1.14-1.181l.15-.146c.2-.195.387-.377.571-.575a1.169,1.169,0,0,0-.006-1.849l-3.254-3.255-.013-.012a1.209,1.209,0,0,0-.851-.431,1.336,1.336,0,0,0-.892.443l-2.021,2.021a1.262,1.262,0,0,1-.9.408,1.294,1.294,0,0,1-.585-.148l-.03-.018a.451.451,0,0,0-.041-.024c-.171-.107-.372-.207-.584-.313L15,18.743a7.772,7.772,0,0,1-.69-.378,21.648,21.648,0,0,1-5.245-4.773l-.006-.006a12.987,12.987,0,0,1-1.908-3.113c0-.014-.009-.028-.014-.042l0-.011a1.206,1.206,0,0,1,.308-1.341.06.06,0,0,1,.019-.02l.011-.01c.5-.448.954-.9,1.482-1.441.113-.11.227-.225.337-.336L9.464,7.1a1.323,1.323,0,0,0,.469-.915,1.323,1.323,0,0,0-.469-.915L7.852,3.657q-.152-.157-.3-.309L7.29,3.083c-.316-.326-.685-.7-1.063-1.058l-.009-.009-.009-.009A1.267,1.267,0,0,0,5.347,1.595Z" transform="translate(0.02 1.619)" fill="#416888"/>
    <path id="Path" d="M.656,1.582A7.491,7.491,0,0,1,4.732,3.7,7.53,7.53,0,0,1,6.847,7.773a.793.793,0,0,0,.786.662,1.055,1.055,0,0,0,.136-.012A.8.8,0,0,0,8.424,7.5,9.111,9.111,0,0,0,5.867,2.568,9.111,9.111,0,0,0,.934.011.8.8,0,0,0,.013.66.789.789,0,0,0,.656,1.582Z" transform="translate(14.469 5.076)" fill="#416888"/>
    <path id="Path-2" data-name="Path" d="M13.26,12.346A14.989,14.989,0,0,0,9.049,4.224,14.989,14.989,0,0,0,.926.012a.8.8,0,1,0-.26,1.571,13.422,13.422,0,0,1,7.26,3.763,13.382,13.382,0,0,1,3.763,7.26.793.793,0,0,0,.786.662,1.055,1.055,0,0,0,.136-.012A.783.783,0,0,0,13.26,12.346Z" transform="translate(14.696 0)" fill="#416888"/>
  </g>
</svg>
