<svg xmlns="http://www.w3.org/2000/svg" width="25.887" height="27.99" viewBox="0 0 25.887 27.99">
  <g id="p-file" transform="translate(-0.051)">
    <path id="Shape" d="M22.413,27.99H1.042A1.038,1.038,0,0,1,0,26.959V21.808a1.043,1.043,0,0,1,2.085,0v4.121H21.371V10.973a.6.6,0,0,1-.174.017H13.726a1.038,1.038,0,0,1-1.043-1.03v-7.9H2.085V12.535a1.043,1.043,0,0,1-2.085,0V1.03A1.038,1.038,0,0,1,1.042,0H14.021a1.077,1.077,0,0,1,.712.275l8.392,7.71a1.021,1.021,0,0,1,.329.756V26.959A1.038,1.038,0,0,1,22.413,27.99ZM14.768,3.126v5.8h6.307Z" transform="translate(2.483)" fill="#416888"/>
    <path id="Path" d="M0,5.825a1.039,1.039,0,0,0,1.042,1.03H11.9L8.548,9.809a1.024,1.024,0,0,0-.087,1.46,1.061,1.061,0,0,0,.782.343,1.09,1.09,0,0,0,.695-.258l5.421-4.774a1.011,1.011,0,0,0,.348-.773,1.037,1.037,0,0,0-.348-.773L9.938.261A1.054,1.054,0,0,0,8.461.347a1.024,1.024,0,0,0,.087,1.46l3.405,2.988H1.042A1.039,1.039,0,0,0,0,5.825Z" transform="translate(0.051 11.175)" fill="#416888"/>
  </g>
</svg>
