<svg xmlns="http://www.w3.org/2000/svg" xmlns:xlink="http://www.w3.org/1999/xlink" width="79.297" height="79.301" viewBox="0 0 79.297 79.301">
  <defs>
    <clipPath id="clip-path">
      <path id="Clip_463" data-name="Clip 463" d="M79.3,39.649A39.649,39.649,0,1,1,39.645,0" transform="translate(0.174 0.593)" fill="none"/>
    </clipPath>
  </defs>
  <g id="CHARACTER" transform="translate(-0.174 -0.593)" clip-path="url(#clip-path)">
    <path id="Fill_462" data-name="Fill 462" d="M28.264,31.521a79.566,79.566,0,0,0,28.257-5.067L54.477,6.525c-.25-2.447-3.805-4.4-8.243-4.733a91.023,91.023,0,0,0-35.944,0C5.85,2.12,2.3,4.076,2.045,6.525L0,26.454a79.6,79.6,0,0,0,28.264,5.067" transform="translate(11.52 51.375)" fill="#1cb295"/>
    <path id="Fill_464" data-name="Fill 464" d="M14.915,15.114A7.457,7.457,0,0,1,0,15.114V7.456a7.457,7.457,0,0,1,14.915,0v7.658" transform="translate(32.668 40.501)" fill="#dcdac8"/>
    <path id="Fill_465" data-name="Fill 465" d="M12.536,19.763c.132.132.264.254.4.385A7.422,7.422,0,0,0,14.9,15.114V7.456A7.452,7.452,0,0,0,0,7.229L12.536,19.763" transform="translate(32.682 40.501)" fill="#c0beae"/>
    <path id="Fill_466" data-name="Fill 466" d="M3.9,5.114c.522,3.041.188,5.062-.584,5.323S1.4,9.159.551,6.221-.166.37.947.045C2.039-.362,3.389,2.054,3.9,5.114" transform="translate(25.307 31.75)" fill="#dcdac8"/>
    <path id="Fill_467" data-name="Fill 467" d="M.061,5.34C-.183,8.416.332,10.4,1.125,10.587S2.913,9.144,3.49,6.141,3.678.249,2.537.025C1.417-.282.29,2.246.061,5.34" transform="translate(50.075 31.971)" fill="#dcdac8"/>
    <path id="Fill_468" data-name="Fill 468" d="M12.836.025C5.268-.528-1.7,8.23.37,21.292a42.387,42.387,0,0,0,2.713,9.842c.995,1.471,2.247,1.662,4.153-2.862.57-1.037,3.04-1.951,5.377-1.951h.452c2.337,0,4.807.914,5.37,1.951,1.906,4.518,3.158,4.333,4.16,2.867A42.416,42.416,0,0,0,25.3,21.292C27.389,8.23,20.405-.531,12.836.025" transform="translate(26.948 17.023)" fill="#f2efdc"/>
    <path id="Fill_469" data-name="Fill 469" d="M0,.008v26.3c2.317.017,4.751.922,5.308,1.949,1.906,4.518,3.158,4.333,4.16,2.867a42.416,42.416,0,0,0,2.706-9.847C14.226,8.38,7.45-.3,0,.008" transform="translate(40.077 17.04)" fill="#dcdac8"/>
    <path id="Fill_470" data-name="Fill 470" d="M25.659.006a14.77,14.77,0,0,1-.292,1.747A22.772,22.772,0,0,1,22.7,8.529c-.981,1.01-2.219,1.137-4.09-1.971-.557-.712-2.991-1.343-5.287-1.343h-.452c-2.3,0-4.73.631-5.287,1.343-1.878,3.113-3.11,2.981-4.1,1.969A22.776,22.776,0,0,1,.824,1.754,16.343,16.343,0,0,1,.539,0,9.461,9.461,0,0,0,.372,5.793c2.1,7.589,1.976,11.29,12.723,11.123,11.443-.178,10.623-3.532,12.73-11.123A9.442,9.442,0,0,0,25.659.006" transform="translate(26.689 37.798)" fill="#2c5871"/>
    <path id="Fill_471" data-name="Fill 471" d="M11.534,1.747A22.772,22.772,0,0,1,8.87,8.523c-.981,1.01-2.219,1.137-4.09-1.971C4.264,5.892,2.136,5.309,0,5.225V16.89c10.664-.312,9.934-3.681,11.993-11.1A9.442,9.442,0,0,0,11.826,0a14.77,14.77,0,0,1-.292,1.747" transform="translate(40.522 37.804)" fill="#0e303f"/>
    <path id="Fill_472" data-name="Fill 472" d="M6.324.039,6.317,0H6.31V0L6.3,0H.828V0S-.2,2.341.035,2.9s.723.608,1.357-.417A7.154,7.154,0,0,1,2.046,1.6a2.156,2.156,0,0,0,.529.07h2A2.289,2.289,0,0,0,5.093,1.6a6.521,6.521,0,0,1,.647.889c.64,1.025,1.12.98,1.357.417C7.319,2.381,6.449.332,6.324.039" transform="translate(36.215 45.807)" fill="#f2efdc"/>
    <path id="Fill_473" data-name="Fill 473" d="M3.583,13.755A34.293,34.293,0,0,0,0,0,45.177,45.177,0,0,1,.522,6.864a44.232,44.232,0,0,1-.438,6.262c1.155.232,2.317.442,3.5.629" transform="translate(18.122 65.009)" fill="#8fc4d7"/>
    <path id="Fill_474" data-name="Fill 474" d="M19.84,0A101.346,101.346,0,0,0,9.523,1.62C5.141,2.049,1.677,3.9,1.5,6.085L0,23.9a85.442,85.442,0,0,0,23.388,3.682L19.84,0" transform="translate(7.805 52.197)" fill="#fff"/>
    <path id="Fill_475" data-name="Fill 475" d="M13.635,31.224,8.793,0C6.4.177,4.9.388,2.5.742A63.441,63.441,0,0,1,0,8.349S6.915,10.006,7.11,10.6.96,13.334.96,13.334l2.685,16.48c3.569.659.3,2.049,4.1,2.049.014,0,4.146.47,5.885-.64" transform="translate(19.875 52.442)" fill="#d1ecfb"/>
    <path id="Fill_476" data-name="Fill 476" d="M12.744,32.759,8.793,0C6.4.175,4.39.772,1.983,1.125,1.433,3.83,0,8.348,0,8.348S6.915,10,7.11,10.6.96,14.189.96,14.189L3.652,29.813c3.562.659.292,2.05,4.1,2.05.014,0,3.249,2.006,4.995.9" transform="translate(20.515 51.802)" fill="#fff"/>
    <path id="Fill_477" data-name="Fill 477" d="M2.72,0A100.729,100.729,0,0,1,13.078,1.311c4.4.3,7.91,2.04,8.16,4.221L23.27,23.291A85.455,85.455,0,0,1,0,27.672L2.72,0" transform="translate(49.628 51.689)" fill="#fff"/>
    <path id="Fill_478" data-name="Fill 478" d="M0,31.224,4.842,0c2.393.177,3.9.388,6.3.742a63.415,63.415,0,0,0,2.5,7.606S6.72,10.006,6.532,10.6s6.143,2.73,6.143,2.73L9.99,29.815c-3.569.658-.3,2.049-4.1,2.049-.021,0-4.153.47-5.892-.64" transform="translate(46.901 51.673)" fill="#d1ecfb"/>
    <path id="Fill_479" data-name="Fill 479" d="M0,32.76,3.951,0c2.393.175,4.41.772,6.81,1.126.557,2.7,1.983,7.222,1.983,7.222S5.83,10,5.642,10.6s6.143,3.587,6.143,3.587L9.1,29.814c-3.569.658-.3,2.049-4.1,2.049-.014,0-3.249,2.006-4.995.9" transform="translate(47.151 51.034)" fill="#fff"/>
  </g>
</svg>
