<svg id="p-phone" xmlns="http://www.w3.org/2000/svg" width="30" height="30" viewBox="0 0 30 30">
  <path id="Path" d="M29.986,23.676a1.452,1.452,0,0,1-.445,1.271l-4.224,4.195a2.377,2.377,0,0,1-.746.54,3.082,3.082,0,0,1-.9.286q-.032,0-.191.016T23.062,30a14.632,14.632,0,0,1-1.953-.207,14.826,14.826,0,0,1-3.3-1.017,27.718,27.718,0,0,1-4.43-2.431A33.037,33.037,0,0,1,8.1,21.9,34.817,34.817,0,0,1,4.42,17.7,29.891,29.891,0,0,1,2.07,14,19.947,19.947,0,0,1,.736,10.916a16.364,16.364,0,0,1-.6-2.383A7.876,7.876,0,0,1,.005,6.96q.032-.572.032-.636a3.09,3.09,0,0,1,.286-.906,2.381,2.381,0,0,1,.54-.747L5.087.445A1.4,1.4,0,0,1,6.1,0a1.184,1.184,0,0,1,.73.238,2.209,2.209,0,0,1,.54.588l3.4,6.451A1.547,1.547,0,0,1,10.93,8.39a1.981,1.981,0,0,1-.54,1.017L8.834,10.964a.53.53,0,0,0-.111.207.785.785,0,0,0-.048.238,5.741,5.741,0,0,0,.572,1.525,14,14,0,0,0,1.175,1.859,20.638,20.638,0,0,0,2.255,2.526,21.041,21.041,0,0,0,2.541,2.272,14.671,14.671,0,0,0,1.858,1.192,4.936,4.936,0,0,0,1.143.461l.4.08a.757.757,0,0,0,.206-.048.53.53,0,0,0,.206-.111l1.81-1.843a1.945,1.945,0,0,1,1.334-.508A1.659,1.659,0,0,1,23.03,19h.032l6.129,3.623A1.6,1.6,0,0,1,29.986,23.676Z" fill="#fff"/>
</svg>
