<svg xmlns="http://www.w3.org/2000/svg" width="32" height="21.044" viewBox="0 0 32 21.044">
  <g id="p-video" transform="translate(0 -0.478)">
    <path id="Shape" d="M24.84,21.044H1.13A1.139,1.139,0,0,1,0,19.9V1.144A1.138,1.138,0,0,1,1.13,0H24.84A1.16,1.16,0,0,1,26,1.144V6.53l4.1-4.158a1.053,1.053,0,0,1,.782-.335,1.133,1.133,0,0,1,.43.084A1.187,1.187,0,0,1,32,3.182V17.833a1.127,1.127,0,0,1-.688,1.061,1.243,1.243,0,0,1-.441.084,1.1,1.1,0,0,1-.8-.335l-4.1-4.159V19.9A1.138,1.138,0,0,1,24.84,21.044ZM2.23,2.261V18.783h21.48V2.261ZM29.741,5.944,25.969,9.8V11.3l3.773,3.823V5.944Z" transform="translate(0 0.478)" fill="#416888"/>
  </g>
</svg>
