<svg xmlns="http://www.w3.org/2000/svg" width="23.455" height="27.99" viewBox="0 0 23.455 27.99">
  <path id="Shape" d="M22.413,27.99H1.042A1.038,1.038,0,0,1,0,26.959V21.808a1.043,1.043,0,0,1,2.085,0v4.121H21.371V10.973a.6.6,0,0,1-.174.017H13.726a1.038,1.038,0,0,1-1.043-1.03v-7.9H2.085V12.535a1.043,1.043,0,0,1-2.085,0V1.03A1.038,1.038,0,0,1,1.042,0H14.021a1.077,1.077,0,0,1,.712.275l8.392,7.71a1.021,1.021,0,0,1,.329.756V26.959A1.038,1.038,0,0,1,22.413,27.99ZM14.768,3.126v5.8h6.307Z" transform="translate(0)" fill="#416888"/>
</svg>
