<svg xmlns="http://www.w3.org/2000/svg" width="39.191" height="39.983" viewBox="0 0 39.191 39.983">
  <g id="t5" transform="translate(-0.043 0)">
    <path id="Path" d="M3.261,22.938a8.331,8.331,0,0,0,11.947,0l8.068-8.229a.639.639,0,0,0-.006-.885.609.609,0,0,0-.868-.006l-8.067,8.229a7.113,7.113,0,0,1-10.2,0l-.791-.807a7.469,7.469,0,0,1,0-10.4L10.62,3.414a7.113,7.113,0,0,1,10.2,0L22.4,5.027a.611.611,0,0,0,.6.17.624.624,0,0,0,.44-.449.639.639,0,0,0-.167-.612L21.693,2.524a8.331,8.331,0,0,0-11.947,0L2.47,9.946a8.749,8.749,0,0,0,0,12.185Z" transform="translate(0.043 14.522)" fill="#416888"/>
    <path id="Path-2" data-name="Path" d="M20.2,2.524a8.331,8.331,0,0,0-11.947,0L.187,10.752a.639.639,0,0,0,.006.885.609.609,0,0,0,.867.006L9.128,3.414a7.113,7.113,0,0,1,10.2,0l.791.807a7.47,7.47,0,0,1,0,10.4l-7.277,7.422a7.113,7.113,0,0,1-10.2,0L1.06,20.433a.609.609,0,0,0-.6-.17.624.624,0,0,0-.44.449.638.638,0,0,0,.166.611l1.582,1.614a8.331,8.331,0,0,0,11.947,0l7.277-7.423a8.748,8.748,0,0,0,0-12.185Z" transform="translate(15.772 0)" fill="#416888"/>
  </g>
</svg>
